<svg xmlns="http://www.w3.org/2000/svg" viewBox="0 0 64 64">
  <defs>
    <radialGradient id="night" cx="50%" cy="42%" r="72%">
      <stop offset="0" stop-color="#173f4a"/>
      <stop offset="1" stop-color="#071419"/>
    </radialGradient>
    <linearGradient id="gold" x1="18" y1="12" x2="48" y2="52">
      <stop stop-color="#fff1a8"/>
      <stop offset=".42" stop-color="#e8bd58"/>
      <stop offset="1" stop-color="#a86d20"/>
    </linearGradient>
    <filter id="glow" x="-80%" y="-80%" width="260%" height="260%">
      <feGaussianBlur stdDeviation="2.4" result="blur"/>
      <feMerge><feMergeNode in="blur"/><feMergeNode in="SourceGraphic"/></feMerge>
    </filter>
  </defs>
  <rect width="64" height="64" rx="15" fill="url(#night)"/>
  <path d="M8 45c12-8 22-6 29-14 6-7 9-14 19-18" fill="none" stroke="#2c6570" stroke-width="2" stroke-linecap="round" opacity=".7"/>
  <path d="M9 52c9-5 17-4 24-8" fill="none" stroke="#214d56" stroke-width="1.5" stroke-linecap="round"/>
  <circle cx="45" cy="20" r="8" fill="#e8bd58" opacity=".13" filter="url(#glow)"/>
  <path d="m45 10 10 10-10 15-10-15Z" fill="url(#gold)" filter="url(#glow)"/>
  <path d="m45 10 3 10-3 15-3-15Z" fill="#fff4bc" opacity=".62"/>
  <circle cx="20" cy="38" r="2.2" fill="#73c8b0"/>
  <circle cx="13" cy="45" r="1.2" fill="#73c8b0" opacity=".65"/>
</svg>
